<svg viewBox="0 0 32 32" fill="none" xmlns="http://www.w3.org/2000/svg"><path d="M0 4C0 1.79086 1.79086 0 4 0H28C30.2091 0 32 1.79086 32 4V28C32 30.2091 30.2091 32 28 32H4C1.79086 32 0 30.2091 0 28V4Z" fill="#F23030"></path><rect x="7.5" y="7.5" width="6" height="8" stroke="white"></rect><rect x="18.5" y="16.5" width="6" height="8" stroke="white"></rect><path d="M16 10L15.6464 9.64645L15.2929 10L15.6464 10.3536L16 10ZM22 10H22.5V9.5H22V10ZM18.3536 8.35355L18.7071 8L18 7.29289L17.6464 7.64645L18.3536 8.35355ZM17.6464 12.3536L18 12.7071L18.7071 12L18.3536 11.6464L17.6464 12.3536ZM16 10.5H22V9.5H16V10.5ZM21.5 10V15H22.5V10H21.5ZM16.3536 10.3536L18.3536 8.35355L17.6464 7.64645L15.6464 9.64645L16.3536 10.3536ZM15.6464 10.3536L17.6464 12.3536L18.3536 11.6464L16.3536 9.64645L15.6464 10.3536Z" fill="white"></path><path d="M16 22L16.3536 22.3536L16.7071 22L16.3536 21.6464L16 22ZM9 22H8.5L8.5 22.5H9L9 22ZM13.6464 23.6464L13.2929 24L14 24.7071L14.3536 24.3536L13.6464 23.6464ZM14.3536 19.6464L14 19.2929L13.2929 20L13.6464 20.3536L14.3536 19.6464ZM16 21.5L9 21.5L9 22.5L16 22.5V21.5ZM9.5 22L9.5 17L8.5 17L8.5 22H9.5ZM15.6464 21.6464L13.6464 23.6464L14.3536 24.3536L16.3536 22.3536L15.6464 21.6464ZM16.3536 21.6464L14.3536 19.6464L13.6464 20.3536L15.6464 22.3536L16.3536 21.6464Z" fill="white"></path></svg>