<svg viewBox="0 0 32 32" xmlns="http://www.w3.org/2000/svg"><path d="M0 4C0 1.79086 1.79086 0 4 0H28C30.2091 0 32 1.79086 32 4V28C32 30.2091 30.2091 32 28 32H4C1.79086 32 0 30.2091 0 28V4Z" fill="#FF8000"></path><path d="M12.4148 15.4706V10.0756H15.8453C16.3515 10.0756 16.8389 10.1092 17.3076 10.1765C17.7762 10.2437 18.1886 10.3782 18.5448 10.5798C18.901 10.7647 19.1822 11.0336 19.3884 11.3866C19.6134 11.7395 19.7258 12.2017 19.7258 12.7731C19.7258 13.3445 19.6134 13.8067 19.3884 14.1597C19.1822 14.5126 18.901 14.7899 18.5448 14.9916C18.1886 15.1765 17.7762 15.3025 17.3076 15.3697C16.8389 15.437 16.3515 15.4706 15.8453 15.4706H12.4148ZM8 7V25H12.4148V18.5462H17.0545C18.3105 18.5462 19.379 18.3866 20.2601 18.0672C21.1412 17.7311 21.8535 17.2941 22.3972 16.7563C22.9596 16.2185 23.3626 15.605 23.6063 14.916C23.8688 14.2101 24 13.4958 24 12.7731C24 12.0336 23.8688 11.3193 23.6063 10.6303C23.3626 9.94118 22.9596 9.32773 22.3972 8.78992C21.8535 8.2521 21.1412 7.82353 20.2601 7.5042C19.379 7.16807 18.3105 7 17.0545 7H8Z" fill="white"></path></svg>